<?xml version="1.0" standalone="no"?>
<!DOCTYPE svg PUBLIC "-//W3C//DTD SVG 20010904//EN"
 "http://www.w3.org/TR/2001/REC-SVG-20010904/DTD/svg10.dtd">
<svg version="1.0" xmlns="http://www.w3.org/2000/svg"
 width="968.000000pt" height="968.000000pt" viewBox="0 0 968.000000 968.000000"
 preserveAspectRatio="xMidYMid meet">
<metadata>
Created by potrace 1.11, written by Peter Selinger 2001-2013
</metadata>
<g transform="translate(0.000000,968.000000) scale(0.100000,-0.100000)"
fill="#000000" stroke="none">
<path d="M4845 8154 c-16 -2 -66 -9 -110 -15 -44 -6 -96 -12 -115 -15 -28 -4
-82 -14 -150 -29 -3 0 -23 -4 -45 -8 -81 -16 -294 -81 -415 -128 -540 -210
-1012 -583 -1385 -1094 -47 -65 -110 -157 -138 -203 -28 -46 -58 -87 -66 -91
-9 -5 -92 -11 -186 -15 -93 -3 -179 -8 -190 -10 -11 -2 -45 -7 -75 -11 -30 -4
-64 -9 -75 -11 -11 -3 -36 -7 -55 -10 -19 -3 -71 -15 -115 -26 -44 -11 -84
-21 -90 -22 -209 -48 -521 -202 -745 -369 -107 -80 -308 -276 -392 -382 -117
-148 -250 -371 -313 -525 -14 -36 -30 -74 -35 -85 -20 -44 -69 -203 -86 -277
-2 -10 -6 -28 -9 -40 -3 -13 -7 -34 -10 -48 -2 -14 -9 -49 -15 -79 -39 -204
-33 -637 10 -811 5 -19 11 -46 14 -60 54 -279 228 -643 434 -904 76 -97 269
-288 372 -368 283 -219 659 -405 940 -464 162 -34 263 -43 460 -39 107 2 211
6 230 10 19 3 76 13 125 21 259 42 529 133 765 257 196 103 296 167 920 597
86 59 214 147 285 196 72 48 184 125 250 170 66 46 224 153 350 239 127 86
282 192 345 236 63 43 122 83 130 89 57 39 492 334 720 488 151 102 309 209
350 237 83 57 507 340 555 371 99 62 324 147 424 159 30 4 63 9 75 11 25 5
211 5 246 -1 14 -2 41 -6 60 -9 316 -46 635 -233 845 -496 120 -149 220 -355
254 -522 6 -29 14 -64 17 -78 23 -106 22 -316 -2 -435 -2 -11 -7 -36 -10 -55
-12 -70 -75 -245 -125 -344 -73 -145 -152 -258 -249 -357 -174 -175 -336 -262
-595 -315 -181 -37 -450 -16 -668 52 -161 51 -482 203 -548 260 -8 8 -19 14
-23 14 -10 0 -100 63 -104 73 -2 4 -8 7 -13 7 -8 0 -164 112 -224 161 -11 9
-65 54 -121 100 -105 88 -134 113 -372 321 -116 102 -148 125 -162 118 -10 -5
-75 -50 -146 -99 -71 -50 -137 -96 -148 -103 -10 -7 -29 -21 -42 -31 l-23 -18
37 -32 c20 -18 39 -34 42 -37 43 -48 648 -541 815 -666 403 -300 797 -499
1095 -554 30 -6 66 -12 80 -15 93 -19 309 -24 435 -11 89 10 332 62 385 83 8
3 20 7 25 8 6 2 53 19 105 39 336 130 606 358 795 671 26 43 54 95 62 115 8
19 21 49 28 65 68 148 113 334 135 559 14 133 7 282 -20 436 -6 30 -13 69 -15
85 -3 17 -8 37 -11 45 -3 8 -8 25 -10 38 -17 87 -95 295 -159 423 -37 75 -138
244 -155 259 -3 3 -19 23 -35 45 -47 64 -184 203 -263 267 -264 216 -567 349
-877 385 -119 14 -307 8 -445 -13 -241 -37 -583 -179 -860 -359 -19 -12 -84
-53 -145 -90 -334 -206 -916 -604 -1955 -1336 -157 -110 -314 -220 -350 -245
-761 -524 -851 -582 -1140 -727 -161 -82 -218 -107 -355 -157 -372 -135 -727
-171 -1010 -100 -44 11 -88 22 -97 25 -36 8 -206 79 -283 117 -413 206 -700
482 -882 849 -30 61 -56 117 -58 123 -1 6 -8 25 -14 41 -31 74 -73 261 -86
378 -7 67 -8 289 -1 327 2 14 7 52 11 85 20 188 106 465 207 664 38 74 72 137
76 141 5 3 19 23 32 44 130 214 428 475 695 608 120 60 303 124 409 144 95 17
260 30 358 28 119 -3 143 -5 301 -31 92 -15 98 -15 117 2 11 10 20 22 20 27 0
32 250 415 384 588 97 125 338 370 456 464 395 312 828 497 1290 549 114 13
439 16 510 4 14 -2 54 -8 90 -12 36 -4 67 -8 70 -10 3 -2 26 -6 50 -10 25 -3
95 -17 155 -31 426 -99 711 -228 980 -445 225 -182 522 -532 697 -824 85 -142
194 -365 202 -413 1 -7 10 -21 19 -32 13 -16 21 -17 49 -10 18 6 56 12 86 16
29 3 63 7 75 10 12 3 77 5 145 5 108 0 122 2 122 17 0 46 -152 374 -251 544
-115 196 -299 447 -434 593 -122 132 -209 217 -342 337 -73 65 -285 222 -383
283 -244 151 -515 269 -780 342 -95 25 -309 68 -395 78 -33 4 -73 9 -90 12
-41 6 -493 12 -530 7z"/>
<path d="M8087 4735 c-65 -18 -108 -39 -162 -80 -137 -105 -190 -239 -194
-487 -1 -62 -6 -117 -11 -123 -5 -6 -23 -12 -40 -13 -72 -6 -143 -65 -168
-141 -8 -22 -12 -159 -11 -420 0 -352 2 -390 18 -427 35 -77 91 -112 196 -122
95 -8 901 -8 994 1 114 11 178 57 195 142 13 65 18 201 18 445 -1 344 -4 384
-39 435 -31 43 -101 85 -144 85 -15 0 -31 6 -36 13 -6 6 -13 71 -17 142 -3 72
-8 141 -10 155 -30 195 -163 347 -349 396 -64 17 -176 17 -240 -1z m210 -190
c72 -21 151 -97 177 -170 21 -59 35 -318 19 -328 -15 -9 -548 -12 -562 -3 -8
6 -12 41 -10 116 3 190 24 258 104 328 77 67 169 87 272 57z"/>
<path d="M8235 4180 c-3 -5 -1 -10 4 -10 6 0 11 5 11 10 0 6 -2 10 -4 10 -3 0
-8 -4 -11 -10z"/>
<path d="M5185 2893 c-129 -106 -156 -127 -240 -194 -103 -82 -115 -92 -129
-104 -6 -6 -31 -26 -56 -45 -74 -57 -93 -77 -87 -93 8 -20 208 -267 217 -267
6 0 106 75 120 90 3 3 24 20 48 39 l42 33 0 -405 c0 -223 3 -412 6 -421 5 -14
30 -16 174 -16 124 0 171 3 177 13 4 6 8 194 9 417 1 223 2 406 3 408 0 2 46
-33 100 -78 55 -44 104 -80 109 -80 4 0 22 17 38 37 16 21 56 71 89 111 95
117 97 120 88 136 -4 8 -33 34 -63 57 -30 24 -57 46 -60 49 -3 3 -36 30 -75
60 -38 30 -72 57 -75 60 -3 3 -50 41 -105 86 -55 44 -126 101 -158 127 -32 26
-65 47 -75 47 -9 0 -53 -30 -97 -67z"/>
</g>
</svg>
